<svg id="Layer_1" data-name="Layer 1" xmlns="http://www.w3.org/2000/svg" viewBox="0 0 432 288"><defs><style>.cls-1{fill:#c6dc6c;}.cls-1,.cls-2,.cls-3{stroke:#231f20;stroke-linecap:round;stroke-linejoin:round;}.cls-2{fill:#5f6b69;}.cls-3{fill:none;}</style></defs><title>dna</title><rect class="cls-1" x="278.51" y="214.98" width="11.65" height="11.65" transform="translate(622.81 343.45) rotate(162.09)"/><rect class="cls-1" x="193.06" y="242.61" width="11.65" height="11.65" transform="translate(464.54 423.65) rotate(162.09)"/><rect class="cls-2" x="259.6" y="189.03" width="11.65" height="11.65" transform="translate(577.93 298.62) rotate(162.09)"/><rect class="cls-1" x="239.45" y="164.58" width="11.65" height="11.65" transform="translate(531.08 257.1) rotate(162.09)"/><rect class="cls-2" x="209.94" y="149.97" width="11.65" height="11.65" transform="translate(469 237.67) rotate(162.09)"/><rect class="cls-2" x="192.15" y="210.84" width="11.65" height="11.65" transform="translate(453.01 361.93) rotate(162.09)"/><rect class="cls-1" x="194.18" y="179.21" width="11.65" height="11.65" transform="translate(447.23 299.59) rotate(162.09)"/><rect class="cls-2" x="133.97" y="58.92" width="11.65" height="11.65" transform="translate(-13.01 45.11) rotate(-17.53)"/><rect class="cls-2" x="219.61" y="31.87" width="11.65" height="11.65" transform="translate(-0.89 69.65) rotate(-17.53)"/><rect class="cls-1" x="152.7" y="85" width="11.65" height="11.65" transform="translate(-19.99 51.96) rotate(-17.53)"/><rect class="cls-2" x="172.69" y="109.59" width="11.65" height="11.65" transform="translate(-26.47 59.13) rotate(-17.53)"/><rect class="cls-1" x="202.1" y="124.39" width="11.65" height="11.65" transform="translate(-29.57 68.67) rotate(-17.53)"/><rect class="cls-1" x="220.3" y="63.65" width="11.65" height="11.65" transform="translate(-10.42 71.33) rotate(-17.53)"/><rect class="cls-2" x="218.06" y="95.26" width="11.65" height="11.65" transform="translate(-20.05 72.13) rotate(-17.53)"/><line class="cls-3" x1="278.79" y1="222.6" x2="204.43" y2="246.64"/><line class="cls-3" x1="259.89" y1="196.65" x2="203.52" y2="214.87"/><rect class="cls-2" x="278.05" y="247.19" width="11.65" height="11.65" transform="translate(631.83 406.45) rotate(162.09)"/><rect class="cls-2" x="210.6" y="269" width="11.65" height="11.65" transform="translate(506.9 469.75) rotate(162.09)"/><line class="cls-3" x1="278.34" y1="254.81" x2="221.98" y2="273.03"/><line class="cls-3" x1="239.73" y1="172.2" x2="205.55" y2="183.25"/><line class="cls-3" x1="218.25" y1="102.57" x2="184.06" y2="113.62"/><line class="cls-3" x1="219.47" y1="71.63" x2="164.22" y2="89.49"/><rect class="cls-1" x="133.94" y="26.29" width="11.65" height="11.65" transform="translate(-3.18 43.59) rotate(-17.53)"/><rect class="cls-1" x="201.54" y="4.94" width="11.65" height="11.65" transform="matrix(0.95, -0.3, 0.3, 0.95, 6.39, 62.96)"/><line class="cls-3" x1="200.71" y1="12.92" x2="145.46" y2="30.78"/><line class="cls-3" x1="219.62" y1="39.58" x2="145.52" y2="63.53"/></svg>